<svg width="35" height="35" viewBox="0 0 35 35" fill="none" xmlns="http://www.w3.org/2000/svg">
<g clip-path="url(#clip0_6113_4313)">
<path d="M25.0137 32.7123L29.3407 8.17286C29.5185 7.04668 28.8665 5.92042 27.7995 5.56478L27.9773 5.03131L33.1342 6.9281C34.3789 7.40232 34.9717 8.70633 34.5568 9.95108L26.0806 33.1865C25.6064 34.4313 24.5988 34.7277 22.8206 34.7277H22.2278C23.4133 34.6684 24.7765 34.0163 25.0137 32.7123Z" fill="#ECF4F7"/>
<path d="M21.6351 34.6684C22.9391 34.6684 24.006 33.6015 24.006 32.2975V7.40235C24.006 6.27616 23.1761 5.32773 22.1092 5.09066L22.2278 4.55719L27.3846 5.4463C27.5032 5.4463 27.681 5.50555 27.7995 5.56487C28.8665 5.97977 29.5185 7.0467 29.3407 8.17296L25.0137 32.7124C24.7766 34.0164 23.4725 34.6685 22.2871 34.6685H21.6351V34.6684Z" fill="#ECF4F7"/>
<path d="M12.1511 14.5152C13.9294 17.4789 17.4858 18.0716 16.8931 21.0354C16.656 22.3394 15.8262 23.4063 14.5222 23.4063C13.2181 23.4063 12.7439 22.8136 12.1512 21.6281C11.5585 22.8136 11.0843 23.4063 9.78027 23.4063C8.47627 23.4063 7.40933 22.3394 7.40933 21.0354C7.40926 18.0716 10.3729 17.4789 12.1511 14.5152Z" fill="#D2FA64"/>
<path d="M12.0919 2.77891L22.2278 4.55713L27.3846 5.44624C27.5032 5.44624 27.681 5.50549 27.7995 5.56481L27.9773 5.03135L15.4113 0.467219C14.1665 -0.00699657 12.8625 0.645041 12.3883 1.8898L12.0919 2.77891L8.71328 2.18619C7.40927 1.94912 6.16451 2.83823 5.98669 4.14224L5.80887 5.0906H5.86812H21.6943C21.8721 5.0906 21.9907 5.0906 22.1685 5.14985L22.2871 4.61638L12.0919 2.77891Z" fill="#ECF4F7"/>
<path d="M24.006 7.40231V32.2974C24.006 33.6014 22.9391 34.6684 21.6351 34.6684H2.66733C1.36332 34.6684 0.296387 33.6014 0.296387 32.2974V7.40231C0.296387 6.09831 1.36332 5.03137 2.66733 5.03137H5.80888H5.86813H21.6943C21.8721 5.03137 21.9907 5.03137 22.1685 5.09062C23.1761 5.32777 24.006 6.27613 24.006 7.40231ZM12.1512 21.6281C12.7439 22.8136 13.2181 23.4063 14.5221 23.4063C15.8261 23.4063 16.656 22.3394 16.893 21.0354C17.4858 18.0716 13.9293 17.4789 12.1511 14.5152C10.3729 17.4789 7.40914 18.0716 7.40914 21.0354C7.40914 22.3394 8.47607 23.4063 9.78008 23.4063C11.0841 23.4063 11.5584 22.8136 12.1512 21.6281Z" fill="#ECF4F7"/>
<path d="M22.8205 34.9647H2.66733C1.1855 34.9647 0 33.7792 0 32.2974V7.40227C0 5.92044 1.1855 4.73494 2.66733 4.73494H5.51249L5.63106 4.02365C5.74963 3.31236 6.16453 2.71964 6.69799 2.30468C7.29071 1.88978 8.002 1.71196 8.71329 1.88978L11.8548 2.42325L12.1512 1.77121C12.3883 1.11917 12.8625 0.585706 13.5146 0.289382C14.1666 -0.00694207 14.8779 -0.0662625 15.5299 0.230131L33.2528 6.69098C34.6161 7.1652 35.3274 8.70628 34.8532 10.0696L26.3769 33.3051C25.8435 34.6684 24.5395 34.9647 22.8205 34.9647ZM2.66733 5.32772C1.54115 5.32772 0.592718 6.27609 0.592718 7.40234V32.2975C0.592718 33.4236 1.54108 34.3721 2.66733 34.3721H21.6351C22.7612 34.3721 23.7097 33.4237 23.7097 32.2975V7.40234C23.7097 6.27616 22.7613 5.32772 21.6351 5.32772H8.002C7.82418 5.32772 7.70561 5.20915 7.70561 5.03133C7.70561 4.85351 7.82418 4.73494 8.002 4.73494H21.6351L14.9963 3.5495C14.8185 3.5495 14.6999 3.37168 14.7592 3.19386C14.7592 3.01604 14.9371 2.89746 15.1149 2.95678L27.4439 5.1499C27.5625 5.1499 27.6218 5.20915 27.7403 5.20915L15.352 0.704347C14.8186 0.526525 14.2851 0.526525 13.7516 0.763598C13.2774 1.00067 12.8625 1.41564 12.6847 1.9491L12.3291 2.83821C12.2698 2.95678 12.1512 3.01604 12.0327 3.01604L8.71329 2.42332C8.17982 2.30475 7.5871 2.42332 7.17214 2.77896C6.69799 3.07529 6.4016 3.5495 6.34235 4.14222L6.16453 5.09058C6.16453 5.20915 5.9867 5.32766 5.86813 5.32766L2.66733 5.32772ZM28.0367 5.32772C29.1628 5.80194 29.8149 6.98738 29.5778 8.23213L25.2508 32.7716C25.1323 33.3643 24.8359 33.8978 24.3617 34.2534C25.1323 34.0756 25.5472 33.72 25.7843 33.0679L34.2605 9.83246C34.6754 8.76553 34.0827 7.58002 33.0158 7.16513L28.0367 5.32772ZM22.5242 4.91276C23.5319 5.2684 24.3024 6.27609 24.3024 7.40227V32.2974C24.3024 32.9494 24.0653 33.5421 23.7097 34.0164C24.1839 33.72 24.5988 33.3051 24.7174 32.653L29.0443 8.11356C29.2222 6.98738 28.5109 5.92044 27.3847 5.6833L22.5242 4.91276ZM21.0423 31.4083H19.8568C19.6789 31.4083 19.5604 31.2897 19.5604 31.1119C19.5604 30.9341 19.6789 30.8155 19.8568 30.8155H20.1532V28.2668L19.5011 28.9188C19.3826 29.0374 19.2047 29.0374 19.0862 28.9188C18.9677 28.8003 18.9677 28.6224 19.0862 28.5039L20.2717 27.3184C20.331 27.2592 20.5088 27.1999 20.5681 27.2592C20.6867 27.3184 20.7459 27.437 20.7459 27.5556V30.8156H21.0423C21.2202 30.8156 21.3387 30.9342 21.3387 31.112C21.3387 31.2898 21.2201 31.4083 21.0423 31.4083ZM12.1512 25.4809C11.9733 25.4809 11.8548 25.3623 11.8548 25.1845V22.7543C11.4399 23.347 10.8471 23.7027 9.78015 23.7027C8.29832 23.7027 7.11282 22.5172 7.11282 21.0353C7.11282 19.1385 8.239 18.1309 9.48376 17.064C10.3136 16.2935 11.2027 15.5228 11.914 14.3967C12.0326 14.2188 12.3289 14.2188 12.4475 14.3967C13.1588 15.5228 14.1071 16.3527 14.9962 17.064C16.3596 18.1902 17.6043 19.1979 17.2487 21.1539C16.9523 22.7543 15.8854 23.762 14.5814 23.762C13.5144 23.762 12.9217 23.4063 12.5067 22.8136V25.2439C12.4476 25.3623 12.329 25.4809 12.1512 25.4809ZM12.4476 21.5095C13.0403 22.6951 13.4552 23.1099 14.5222 23.1099C15.7669 23.1099 16.419 21.9838 16.5968 20.9761C16.8932 19.3757 15.8855 18.5458 14.5815 17.4789C13.7516 16.8268 12.8625 16.1156 12.1512 15.0486C11.4399 16.0563 10.6101 16.8268 9.83954 17.4789C8.65404 18.5458 7.64643 19.3757 7.64643 21.0353C7.64643 22.1615 8.59479 23.1099 9.72104 23.1099C10.8473 23.1099 11.2029 22.6951 11.7957 21.5095C11.7957 21.5095 11.7957 21.4503 11.8549 21.4503C11.8549 21.4503 11.8549 21.4503 11.9142 21.391C11.9734 21.3318 12.0327 21.3318 12.092 21.3318C12.1512 21.3318 12.2106 21.391 12.2698 21.391C12.3883 21.4502 12.3883 21.4502 12.4476 21.5095ZM5.03827 12.4406H3.85284C3.67502 12.4406 3.55644 12.322 3.55644 12.1442C3.55644 11.9664 3.67502 11.8478 3.85284 11.8478H4.14923V9.29906L3.49719 9.9511C3.37862 10.0697 3.2008 10.0697 3.0823 9.9511C2.96373 9.83253 2.96373 9.65471 3.0823 9.53621L4.26773 8.3507C4.32698 8.29145 4.50481 8.23213 4.56413 8.29145C4.6827 8.3507 4.74195 8.46927 4.74195 8.58785V11.8479H5.03834C5.21616 11.8479 5.33474 11.9665 5.33474 12.1443C5.33467 12.322 5.2161 12.4406 5.03827 12.4406Z" fill="black"/>
</g>
<defs>
<clipPath id="clip0_6113_4313">
<rect width="35" height="35" fill="white"/>
</clipPath>
</defs>
</svg>
