<svg width="192" height="35" viewBox="0 0 192 35" fill="none" xmlns="http://www.w3.org/2000/svg">
<g clip-path="url(#clip0_6113_4324)">
<path d="M25.0137 32.7123L29.3407 8.17286C29.5185 7.04668 28.8665 5.92042 27.7995 5.56478L27.9773 5.03131L33.1342 6.9281C34.3789 7.40232 34.9717 8.70633 34.5568 9.95108L26.0806 33.1865C25.6064 34.4313 24.5988 34.7277 22.8206 34.7277H22.2278C23.4133 34.6684 24.7765 34.0163 25.0137 32.7123Z" fill="#ECF4F7"/>
<path d="M21.6351 34.6684C22.9391 34.6684 24.006 33.6015 24.006 32.2975V7.40235C24.006 6.27616 23.1761 5.32773 22.1092 5.09066L22.2278 4.55719L27.3846 5.4463C27.5032 5.4463 27.681 5.50555 27.7995 5.56487C28.8665 5.97977 29.5185 7.0467 29.3407 8.17296L25.0137 32.7124C24.7766 34.0164 23.4725 34.6685 22.2871 34.6685H21.6351V34.6684Z" fill="#ECF4F7"/>
<path d="M12.1511 14.5152C13.9294 17.4789 17.4858 18.0716 16.8931 21.0354C16.656 22.3394 15.8262 23.4063 14.5222 23.4063C13.2181 23.4063 12.7439 22.8136 12.1512 21.6281C11.5585 22.8136 11.0843 23.4063 9.78027 23.4063C8.47627 23.4063 7.40933 22.3394 7.40933 21.0354C7.40926 18.0716 10.3729 17.4789 12.1511 14.5152Z" fill="#D2FA64"/>
<path d="M12.0919 2.77891L22.2278 4.55713L27.3846 5.44624C27.5032 5.44624 27.681 5.50549 27.7995 5.56481L27.9773 5.03135L15.4113 0.467219C14.1665 -0.00699657 12.8625 0.645041 12.3883 1.8898L12.0919 2.77891L8.71328 2.18619C7.40927 1.94912 6.16451 2.83823 5.98669 4.14224L5.80887 5.0906H5.86812H21.6943C21.8721 5.0906 21.9907 5.0906 22.1685 5.14985L22.2871 4.61638L12.0919 2.77891Z" fill="#ECF4F7"/>
<path d="M24.006 7.40231V32.2974C24.006 33.6014 22.9391 34.6684 21.6351 34.6684H2.66733C1.36332 34.6684 0.296387 33.6014 0.296387 32.2974V7.40231C0.296387 6.09831 1.36332 5.03137 2.66733 5.03137H5.80888H5.86813H21.6943C21.8721 5.03137 21.9907 5.03137 22.1685 5.09062C23.1761 5.32777 24.006 6.27613 24.006 7.40231ZM12.1512 21.6281C12.7439 22.8136 13.2181 23.4063 14.5221 23.4063C15.8261 23.4063 16.656 22.3394 16.893 21.0354C17.4858 18.0716 13.9293 17.4789 12.1511 14.5152C10.3729 17.4789 7.40914 18.0716 7.40914 21.0354C7.40914 22.3394 8.47607 23.4063 9.78008 23.4063C11.0841 23.4063 11.5584 22.8136 12.1512 21.6281Z" fill="#ECF4F7"/>
<path d="M22.8205 34.9647H2.66733C1.1855 34.9647 0 33.7792 0 32.2974V7.40227C0 5.92044 1.1855 4.73494 2.66733 4.73494H5.51249L5.63106 4.02365C5.74963 3.31236 6.16453 2.71964 6.69799 2.30468C7.29071 1.88978 8.002 1.71196 8.71329 1.88978L11.8548 2.42325L12.1512 1.77121C12.3883 1.11917 12.8625 0.585706 13.5146 0.289382C14.1666 -0.00694207 14.8779 -0.0662625 15.5299 0.230131L33.2528 6.69098C34.6161 7.1652 35.3274 8.70628 34.8532 10.0696L26.3769 33.3051C25.8435 34.6684 24.5395 34.9647 22.8205 34.9647ZM2.66733 5.32772C1.54115 5.32772 0.592718 6.27609 0.592718 7.40234V32.2975C0.592718 33.4236 1.54108 34.3721 2.66733 34.3721H21.6351C22.7612 34.3721 23.7097 33.4237 23.7097 32.2975V7.40234C23.7097 6.27616 22.7613 5.32772 21.6351 5.32772H8.002C7.82418 5.32772 7.70561 5.20915 7.70561 5.03133C7.70561 4.85351 7.82418 4.73494 8.002 4.73494H21.6351L14.9963 3.5495C14.8185 3.5495 14.6999 3.37168 14.7592 3.19386C14.7592 3.01604 14.9371 2.89746 15.1149 2.95678L27.4439 5.1499C27.5625 5.1499 27.6218 5.20915 27.7403 5.20915L15.352 0.704347C14.8186 0.526525 14.2851 0.526525 13.7516 0.763598C13.2774 1.00067 12.8625 1.41564 12.6847 1.9491L12.3291 2.83821C12.2698 2.95678 12.1512 3.01604 12.0327 3.01604L8.71329 2.42332C8.17982 2.30475 7.5871 2.42332 7.17214 2.77896C6.69799 3.07529 6.4016 3.5495 6.34235 4.14222L6.16453 5.09058C6.16453 5.20915 5.9867 5.32766 5.86813 5.32766L2.66733 5.32772ZM28.0367 5.32772C29.1628 5.80194 29.8149 6.98738 29.5778 8.23213L25.2508 32.7716C25.1323 33.3643 24.8359 33.8978 24.3617 34.2534C25.1323 34.0756 25.5472 33.72 25.7843 33.0679L34.2605 9.83246C34.6754 8.76553 34.0827 7.58002 33.0158 7.16513L28.0367 5.32772ZM22.5242 4.91276C23.5319 5.2684 24.3024 6.27609 24.3024 7.40227V32.2974C24.3024 32.9494 24.0653 33.5421 23.7097 34.0164C24.1839 33.72 24.5988 33.3051 24.7174 32.653L29.0443 8.11356C29.2222 6.98738 28.5109 5.92044 27.3847 5.6833L22.5242 4.91276ZM21.0423 31.4083H19.8568C19.6789 31.4083 19.5604 31.2897 19.5604 31.1119C19.5604 30.9341 19.6789 30.8155 19.8568 30.8155H20.1532V28.2668L19.5011 28.9188C19.3826 29.0374 19.2047 29.0374 19.0862 28.9188C18.9677 28.8003 18.9677 28.6224 19.0862 28.5039L20.2717 27.3184C20.331 27.2592 20.5088 27.1999 20.5681 27.2592C20.6867 27.3184 20.7459 27.437 20.7459 27.5556V30.8156H21.0423C21.2202 30.8156 21.3387 30.9342 21.3387 31.112C21.3387 31.2898 21.2201 31.4083 21.0423 31.4083ZM12.1512 25.4809C11.9733 25.4809 11.8548 25.3623 11.8548 25.1845V22.7543C11.4399 23.347 10.8471 23.7027 9.78015 23.7027C8.29832 23.7027 7.11282 22.5172 7.11282 21.0353C7.11282 19.1385 8.239 18.1309 9.48376 17.064C10.3136 16.2935 11.2027 15.5228 11.914 14.3967C12.0326 14.2188 12.3289 14.2188 12.4475 14.3967C13.1588 15.5228 14.1071 16.3527 14.9962 17.064C16.3596 18.1902 17.6043 19.1979 17.2487 21.1539C16.9523 22.7543 15.8854 23.762 14.5814 23.762C13.5144 23.762 12.9217 23.4063 12.5067 22.8136V25.2439C12.4476 25.3623 12.329 25.4809 12.1512 25.4809ZM12.4476 21.5095C13.0403 22.6951 13.4552 23.1099 14.5222 23.1099C15.7669 23.1099 16.419 21.9838 16.5968 20.9761C16.8932 19.3757 15.8855 18.5458 14.5815 17.4789C13.7516 16.8268 12.8625 16.1156 12.1512 15.0486C11.4399 16.0563 10.6101 16.8268 9.83954 17.4789C8.65404 18.5458 7.64643 19.3757 7.64643 21.0353C7.64643 22.1615 8.59479 23.1099 9.72104 23.1099C10.8473 23.1099 11.2029 22.6951 11.7957 21.5095C11.7957 21.5095 11.7957 21.4503 11.8549 21.4503C11.8549 21.4503 11.8549 21.4503 11.9142 21.391C11.9734 21.3318 12.0327 21.3318 12.092 21.3318C12.1512 21.3318 12.2106 21.391 12.2698 21.391C12.3883 21.4502 12.3883 21.4502 12.4476 21.5095ZM5.03827 12.4406H3.85284C3.67502 12.4406 3.55644 12.322 3.55644 12.1442C3.55644 11.9664 3.67502 11.8478 3.85284 11.8478H4.14923V9.29906L3.49719 9.9511C3.37862 10.0697 3.2008 10.0697 3.0823 9.9511C2.96373 9.83253 2.96373 9.65471 3.0823 9.53621L4.26773 8.3507C4.32698 8.29145 4.50481 8.23213 4.56413 8.29145C4.6827 8.3507 4.74195 8.46927 4.74195 8.58785V11.8479H5.03834C5.21616 11.8479 5.33474 11.9665 5.33474 12.1443C5.33467 12.322 5.2161 12.4406 5.03827 12.4406Z" fill="black"/>
</g>
<path d="M52.8965 24H55.9531V19.0781H58.375C60.0156 19.0781 61.2689 18.668 62.1348 17.8477C63.0072 17.0273 63.4434 15.8848 63.4434 14.4199C63.4434 12.9421 63.0072 11.7995 62.1348 10.9922C61.2624 10.1849 60.0156 9.78125 58.3945 9.78125H52.8965V24ZM55.9531 16.832V12.0664H58.0332C58.9186 12.0664 59.5339 12.278 59.8789 12.7012C60.224 13.1178 60.3965 13.694 60.3965 14.4297C60.3965 15.1719 60.224 15.7578 59.8789 16.1875C59.5339 16.6172 58.9186 16.832 58.0332 16.832H55.9531ZM65.123 24H68.0918V9.14648H65.123V24ZM70.0254 21.0312C70.0254 22.0794 70.3574 22.8672 71.0215 23.3945C71.6855 23.9219 72.5189 24.1855 73.5215 24.1855C74.3613 24.1855 75.0612 24.0358 75.6211 23.7363C76.1875 23.4303 76.5684 23.0853 76.7637 22.7012C76.7897 22.9355 76.832 23.1732 76.8906 23.4141C76.9492 23.6549 77.0208 23.8503 77.1055 24H80.0156V23.8438C79.8854 23.5833 79.7812 23.2676 79.7031 22.8965C79.6315 22.5254 79.5957 22.1348 79.5957 21.7246V17.0957C79.5957 15.8978 79.2083 15.0156 78.4336 14.4492C77.6654 13.8828 76.5911 13.5996 75.2109 13.5996C73.8307 13.5996 72.7109 13.8958 71.8516 14.4883C70.9987 15.0807 70.5723 15.8359 70.5723 16.7539V16.9102L73.4629 16.9199V16.7539C73.4629 16.4154 73.5866 16.1322 73.834 15.9043C74.0814 15.6699 74.4948 15.5527 75.0742 15.5527C75.6536 15.5527 76.0573 15.6927 76.2852 15.9727C76.5195 16.2461 76.6367 16.6107 76.6367 17.0664V17.6426H74.6055C73.2773 17.6491 72.1803 17.9355 71.3145 18.502C70.4551 19.0684 70.0254 19.9115 70.0254 21.0312ZM72.9844 20.7773C72.9844 20.3216 73.1569 19.9766 73.502 19.7422C73.847 19.5013 74.3776 19.3809 75.0938 19.3809H76.6367V20.3281C76.6367 20.8424 76.4382 21.2884 76.041 21.666C75.6504 22.0436 75.1589 22.2324 74.5664 22.2324C74.026 22.2324 73.6257 22.1022 73.3652 21.8418C73.1113 21.5749 72.9844 21.2201 72.9844 20.7773ZM82.0469 24H85.0156V17.2617C85.1914 16.8451 85.4518 16.5195 85.7969 16.2852C86.1484 16.0508 86.526 15.9336 86.9297 15.9336C87.4245 15.9336 87.8053 16.0605 88.0723 16.3145C88.3392 16.5684 88.4727 17.0078 88.4727 17.6328V24H91.4414V17.623C91.4414 16.1647 91.1126 15.1426 90.4551 14.5566C89.7975 13.9642 88.9512 13.668 87.916 13.668C87.265 13.668 86.679 13.7982 86.1582 14.0586C85.6374 14.3125 85.2467 14.6445 84.9863 15.0547H84.9375L84.8789 13.8828H82.0469V24ZM93.7461 24H96.7148V17.2617C96.8906 16.8451 97.151 16.5195 97.4961 16.2852C97.8477 16.0508 98.2253 15.9336 98.6289 15.9336C99.1237 15.9336 99.5046 16.0605 99.7715 16.3145C100.038 16.5684 100.172 17.0078 100.172 17.6328V24H103.141V17.623C103.141 16.1647 102.812 15.1426 102.154 14.5566C101.497 13.9642 100.65 13.668 99.6152 13.668C98.9642 13.668 98.3783 13.7982 97.8574 14.0586C97.3366 14.3125 96.946 14.6445 96.6855 15.0547H96.6367L96.5781 13.8828H93.7461V24ZM105.484 24H108.463V13.8828H105.484V24ZM105.25 10.9824C105.25 11.4316 105.396 11.8092 105.689 12.1152C105.989 12.4212 106.415 12.5742 106.969 12.5742C107.522 12.5742 107.949 12.4212 108.248 12.1152C108.548 11.8092 108.697 11.4316 108.697 10.9824C108.697 10.5397 108.548 10.1686 108.248 9.86914C107.955 9.56315 107.532 9.41016 106.979 9.41016C106.419 9.41016 105.989 9.56315 105.689 9.86914C105.396 10.1686 105.25 10.5397 105.25 10.9824ZM110.895 24H113.863V17.2617C114.039 16.8451 114.299 16.5195 114.645 16.2852C114.996 16.0508 115.374 15.9336 115.777 15.9336C116.272 15.9336 116.653 16.0605 116.92 16.3145C117.187 16.5684 117.32 17.0078 117.32 17.6328V24H120.289V17.623C120.289 16.1647 119.96 15.1426 119.303 14.5566C118.645 13.9642 117.799 13.668 116.764 13.668C116.113 13.668 115.527 13.7982 115.006 14.0586C114.485 14.3125 114.094 14.6445 113.834 15.0547H113.785L113.727 13.8828H110.895V24ZM122.652 26.9004C123.147 27.291 123.772 27.6165 124.527 27.877C125.289 28.1439 126.122 28.2773 127.027 28.2773C128.518 28.2773 129.745 27.8477 130.709 26.9883C131.673 26.1289 132.154 24.8984 132.154 23.2969V13.8828H129.322L129.264 15.0645H129.215C128.993 14.6608 128.622 14.332 128.102 14.0781C127.587 13.8177 127.014 13.6875 126.383 13.6875C125.074 13.6875 124.026 14.153 123.238 15.084C122.451 16.015 122.057 17.2487 122.057 18.7852V19.0977C122.057 20.6276 122.454 21.8581 123.248 22.7891C124.042 23.7135 125.087 24.1758 126.383 24.1758C127.053 24.1758 127.626 24.0651 128.102 23.8438C128.577 23.6224 128.945 23.3099 129.205 22.9062V23.4531C129.205 24.3516 128.977 25.0156 128.521 25.4453C128.072 25.875 127.496 26.0898 126.793 26.0898C126.155 26.0898 125.559 25.9759 125.006 25.748C124.452 25.5267 124.055 25.2988 123.814 25.0645L122.652 26.9004ZM125.074 19.2148V18.668C125.074 17.8411 125.25 17.1706 125.602 16.6562C125.96 16.1419 126.493 15.8848 127.203 15.8848C127.691 15.8848 128.105 16.0215 128.443 16.2949C128.788 16.5618 129.039 16.9004 129.195 17.3105V20.6113C129.052 20.9694 128.811 21.2884 128.473 21.5684C128.134 21.8483 127.724 21.9883 127.242 21.9883C126.507 21.9883 125.96 21.7344 125.602 21.2266C125.25 20.7122 125.074 20.0417 125.074 19.2148ZM139.654 24H142.711V19.0781H145.133C146.773 19.0781 148.027 18.668 148.893 17.8477C149.765 17.0273 150.201 15.8848 150.201 14.4199C150.201 12.9421 149.765 11.7995 148.893 10.9922C148.02 10.1849 146.773 9.78125 145.152 9.78125H139.654V24ZM142.711 16.832V12.0664H144.791C145.676 12.0664 146.292 12.278 146.637 12.7012C146.982 13.1178 147.154 13.694 147.154 14.4297C147.154 15.1719 146.982 15.7578 146.637 16.1875C146.292 16.6172 145.676 16.832 144.791 16.832H142.711ZM151.217 19.0879C151.217 20.6764 151.705 21.9395 152.682 22.877C153.658 23.8145 154.931 24.2832 156.5 24.2832C158.069 24.2832 159.339 23.8145 160.309 22.877C161.285 21.9395 161.773 20.6764 161.773 19.0879V18.7754C161.773 17.1868 161.285 15.9271 160.309 14.9961C159.339 14.0586 158.069 13.5898 156.5 13.5898C154.931 13.5898 153.658 14.0586 152.682 14.9961C151.705 15.9271 151.217 17.1868 151.217 18.7754V19.0879ZM154.244 18.6191C154.244 17.7077 154.443 17.0111 154.84 16.5293C155.237 16.0475 155.79 15.8066 156.5 15.8066C157.21 15.8066 157.76 16.0475 158.15 16.5293C158.548 17.0111 158.746 17.7077 158.746 18.6191V19.2441C158.746 20.1556 158.551 20.8555 158.16 21.3438C157.776 21.8255 157.223 22.0664 156.5 22.0664C155.777 22.0664 155.221 21.8255 154.83 21.3438C154.439 20.8555 154.244 20.1556 154.244 19.2441V18.6191ZM163.648 24H166.617V20.8848L173.189 13.873H169.918L166.617 17.4668V9.14648H163.648V24ZM170.143 24H173.629L168.561 17.1836L166.686 19.2734L170.143 24ZM173.775 19.0879C173.775 20.6569 174.247 21.9167 175.191 22.8672C176.135 23.8177 177.438 24.293 179.098 24.293C180.178 24.293 181.103 24.0846 181.871 23.668C182.639 23.2513 183.186 22.7207 183.512 22.0762L181.363 20.8262C181.129 21.1712 180.816 21.474 180.426 21.7344C180.042 21.9883 179.583 22.1152 179.049 22.1152C178.287 22.1152 177.708 21.8581 177.311 21.3438C176.92 20.8229 176.725 20.1165 176.725 19.2246V18.5898C176.725 17.7109 176.907 17.0111 177.271 16.4902C177.636 15.9694 178.167 15.709 178.863 15.709C179.475 15.709 179.944 15.8978 180.27 16.2754C180.595 16.6465 180.758 17.1055 180.758 17.6523V17.8477H175.729V19.6348H183.678V18.6094C183.678 17.0469 183.251 15.8197 182.398 14.9277C181.552 14.0358 180.377 13.5898 178.873 13.5898C177.382 13.5898 176.158 14.0651 175.201 15.0156C174.251 15.9596 173.775 17.2129 173.775 18.7754V19.0879ZM185.426 24H188.414V17.5645C188.583 17.1543 188.847 16.8158 189.205 16.5488C189.57 16.2819 189.973 16.1484 190.416 16.1484C190.579 16.1484 190.725 16.1582 190.855 16.1777C190.992 16.1908 191.119 16.2135 191.236 16.2461V13.7461C191.178 13.7201 191.077 13.694 190.934 13.668C190.79 13.6354 190.647 13.6191 190.504 13.6191C190.042 13.6191 189.625 13.7559 189.254 14.0293C188.883 14.3027 188.593 14.6348 188.385 15.0254H188.336L188.277 13.8828H185.426V24Z" fill="white"/>
<defs>
<clipPath id="clip0_6113_4324">
<rect width="35" height="35" fill="white"/>
</clipPath>
</defs>
</svg>
